PathFileType	4	(X/Y/Z)	32_1_41_p0_0-190_filt_butterworth.trc
DataRate	CameraRate	NumFrames	NumMarkers	Units	OrigDataRate	OrigDataStartFrame	OrigNumFrames
54.0	54.0	4	27	m	54.0	0	190
Frame#	Time	RHip			RKnee			RAnkle			RBigToe			RSmallToe			RHeel			LHip			LKnee			LAnkle			LBigToe			LSmallToe			LHeel			Neck			Head			Nose			RShoulder			RElbow			RWrist			RThumb			RIndex			RPinky			LShoulder			LElbow			LWrist			LThumb			LIndex			LPinky			
		X1	Y1	Z1	X2	Y2	Z2	X3	Y3	Z3	X4	Y4	Z4	X5	Y5	Z5	X6	Y6	Z6	X7	Y7	Z7	X8	Y8	Z8	X9	Y9	Z9	X10	Y10	Z10	X11	Y11	Z11	X12	Y12	Z12	X13	Y13	Z13	X14	Y14	Z14	X15	Y15	Z15	X16	Y16	Z16	X17	Y17	Z17	X18	Y18	Z18	X19	Y19	Z19	X20	Y20	Z20	X21	Y21	Z21	X22	Y22	Z22	X23	Y23	Z23	X24	Y24	Z24	X25	Y25	Z25	X26	Y26	Z26	X27	Y27	Z27	
0	0.0	0.34800986210285256	0.49498554234968184	1.0867577325304627	0.3426601708951782	0.5257995678421243	1.511519370003533	0.3448784790989758	0.5327027265573884	1.9260394079246934	0.3226848702394608	0.3668475662025763	1.9499230256493316	0.3768904151338388	0.3738432261080984	1.9414132701551787	0.30064982689268904	0.573423165579761	1.9957159319541606	0.1363965820305374	0.49829537796581874	1.0917505866401584	0.1378766511167273	0.5186999460195878	1.4997731712580689	0.156628850149764	0.5245478044916447	1.9200050161329143	0.1566669232034034	0.3561623726860374	1.9315792318620293	0.09840947876953801	0.3935945597676205	1.9365270645077124	0.16631112291586964	0.5593660213629958	1.9809821054705488	0.24847390664377006	0.4691947711999241	0.4895226918773692	0.24170267659015537	0.45231730187067853	0.2521278370681521	0.23478561902887246	0.3697449668515183	0.3607763418122189	0.39144705250972955	0.44922678530292726	0.5723579317999843	0.4153356060173478	0.3800845109777489	0.794893874588041	0.2927204688411779	0.32105192180829367	1.005552258975107	0.2000543975443617	0.3276198499840355	1.1111025375875654	0.19913699382425884	0.3528511904641402	1.1327549772255767	0.22719573395267345	0.3386887402452125	1.1048359185396495	0.08395215066299758	0.46639216837034964	0.5630856202292822	0.09072799727164599	0.4053722337272927	0.7955882113106767	0.2182802126778984	0.3044761189314619	0.9865691926532478	0.22440222424315018	0.29484957842641063	1.0849986415018595	0.22319680027913336	0.30642551593873224	1.1281825799546474	0.22128871938545983	0.33114308167325474	1.1092932652921192
1	0.0185185185185185	0.34807747820065194	0.49479231829807097	1.0871654974362528	0.3425149026000386	0.5254555645306713	1.5101778774445003	0.34825494994641926	0.5231084568184785	1.9162362971063667	0.31990348319606476	0.3652065841795784	1.9492461142322248	0.3810423553614754	0.36762600110511157	1.9355860833962883	0.3036744299489038	0.583214321367826	1.9969318708684072	0.13975014457778606	0.4896863810305512	1.088588729197213	0.13810614616888756	0.5185316059101004	1.4985663587994538	0.156367032132156	0.5258807175172884	1.9172254917648808	0.15407313837970588	0.3607902214176557	1.9334091135237732	0.09842915106382391	0.3938901351307095	1.9366048888080014	0.1661461926844448	0.560504308156162	1.978094983224036	0.2486700201165835	0.4699093403544802	0.4920563507163221	0.24254445157093782	0.4551882185171683	0.25245593371164515	0.23755180844376841	0.3716901774511904	0.3627957601383395	0.39174269986949456	0.4496711491566389	0.5747100681711347	0.4153144737809732	0.38033901619719923	0.7982553012415359	0.2938652109213036	0.3244652882007281	1.006638231296956	0.20122550221516045	0.33284808264481497	1.109688798427218	0.19892663214468428	0.3510566890467996	1.1266199261036647	0.2271510102462524	0.3385920155035076	1.1048760215252906	0.08573420388603376	0.47278594581140665	0.5688447310018492	0.09383809532160141	0.397127439215063	0.7974972524860923	0.219516066945479	0.3051907008409814	0.9866631191052507	0.22406421230364848	0.3026253641507096	1.087953488247457	0.2238350996240757	0.3096135524912475	1.1288321686208407	0.21916630315249458	0.33150243560148074	1.1089461638688283
2	0.037037037037037	0.3480022085278751	0.4947353930766696	1.0881769929257712	0.3426005466326103	0.5254897211170388	1.5103031179602606	0.3492670170663497	0.5208059614997593	1.9123717483128528	0.31837494669692834	0.36435597579704065	1.94887989225977	0.38378529626837854	0.3661774361502753	1.9343997569009388	0.3050784179464338	0.5886904026510688	1.9978973292619893	0.1415967738445917	0.4849217353050317	1.0867932162257226	0.138076494024263	0.5184876261964586	1.4985819718661557	0.15622403543429636	0.526602146791334	1.9157170658505438	0.15245966661611193	0.36344819659302163	1.9351932553228999	0.0984222001719951	0.3940480892795296	1.9366241864395262	0.16606007493843278	0.5611291547194126	1.9765451249264847	0.2487820189292751	0.470284067286198	0.4934309522264385	0.24288191775484813	0.4563101617957417	0.25260851332633594	0.23909363478750972	0.3728263650531678	0.36326825006206764	0.3919060679699003	0.44992338615460264	0.5760168385959255	0.41520620174879663	0.3803641482868029	0.799434550240846	0.29500227172784826	0.3278993638799169	1.0077529897626576	0.20192501782911548	0.3357250718336846	1.1090969046018613	0.19963468901153603	0.34701592585591723	1.1216207633085482	0.22705901231320763	0.338402779710723	1.1048545249447783	0.08618223402472376	0.4740854846270339	0.5718415614922434	0.09550015981660295	0.3928264771917026	0.7977837500823846	0.21954459992316558	0.3052403134732074	0.9866214959387813	0.22503467038981975	0.30957185364288997	1.0904701027235608	0.22476262597207483	0.3133610086187905	1.130140848581286	0.21722461884334263	0.3316739582883774	1.1079379469260364
3	0.0555555555555555	0.34781121216961847	0.4947990914094824	1.089583377983077	0.34279557086133444	0.52573143791837	1.5112528753633963	0.3480784590395022	0.5250191353835151	1.914472695145488	0.31809554576995125	0.36429983453316495	1.9488451114468899	0.3848078635973915	0.36809456781686023	1.9364482696252698	0.304646535520838	0.5886908872898158	1.9973524577842132	0.14194891690523712	0.4839647633071318	1.086372630388753	0.13789721447902753	0.5185312736405808	1.4993163081070788	0.1561979611880959	0.5267273555163245	1.9154555533568884	0.15194107104103352	0.36411063876465066	1.9364265591216652	0.09840194976290256	0.3941060806916201	1.9366085578508314	0.16604724528907822	0.5612916634506976	1.9762962603146028	0.24881127910198844	0.4703294189693415	0.4936647845959534	0.24255103487847168	0.4550826709155764	0.2525949755740111	0.23941753546995387	0.3731258096561582	0.3623763474634115	0.39195303200260506	0.4500222614435063	0.5763007118039851	0.4150656890049551	0.380257857024041	0.7989795386468315	0.2957738084227755	0.3302291642843618	1.0085135168997321	0.2024213450722281	0.33717328844980543	1.1098802346335461	0.20108369287515138	0.3416692063118653	1.1191100455611853	0.22695421849552988	0.338223030615649	1.1048012495711295	0.08545095741685863	0.4709315029318788	0.571950306532119	0.09574568273850409	0.39234341810702317	0.7966756335086269	0.21883795576594997	0.3048907479145958	0.9865148849713701	0.2274033999840355	0.31439076601340693	1.0921210055482495	0.22563641387056543	0.3162320111571211	1.1322108940405669	0.21600563002760145	0.33146380614912213	1.1074451895047648
